<svg xmlns="http://www.w3.org/2000/svg" xmlns:xlink="http://www.w3.org/1999/xlink" version="1.1" x="0px" y="0px" viewBox="0 0 1000 1250" style="enable-background:new 0 0 1000 1000;" xml:space="preserve"><g><path d="M386.2888184,405.6545105c22.8172607,0.1879883,45.4126587,2.5345764,67.5753784,7.8115234   c19.7276306,4.697113,39.4918823,6.8542786,59.8237915,6.5814209c44.7043457-0.6001282,89.4223633-0.1816101,134.1348267-0.1788635   c2.5254517,0.0001221,5.0509644,0.000061,7.2520142,0.000061c10.173645-16.4617004,16.1256104-61.5319519,15.4238892-77.0735168   c-0.5002441-11.079895-6.3796997-16.209259-17.9412231-16.1966858   c-47.4578247,0.0518188-94.9157104,0.2075195-142.3736267,0.2634277   c-39.420105,0.0465088-78.8171997,0.7210693-118.1551514,3.5402222   c-9.1759033,0.6575317-17.8916931,2.5336914-25.1400452,8.5648499   c-23.6356812,19.6664734-43.2486877,43.0527344-63.1507874,68.2988281   C332.2091675,405.3871765,359.2456665,405.4317322,386.2888184,405.6545105z M357.6637573,403.3869629   c-15.260376,0.0056152-31.6622925,1.0862732-47.6369934,1.0862732   c13.5396423-16.9012756,30.4544373-37.7066956,46.5335388-53.1489563   c18.4671021-16.7158813,17.3527222-17.8303223,53.7012939-19.6827087   c14.1175232-0.3763428,27.0126343-0.6947632,42.3641357-1.0050659   c-7.391571,6.0414429-59.8753662,47.4329224-88.7422485,69.7210388   C362.0316772,401.787384,360.2186584,403.3859558,357.6637573,403.3869629z"/><path d="M832.4115601,421.3364258c-13.1229248-14.3280334-26.6247559-28.2748718-41.1813354-41.1604309   c-10.7000122-9.4718323-20.777771-19.9177551-33.9224854-26.0443726   c-21.8683472-10.1924438-45.2830811-15.2268982-68.9905396-19.9389648   c-0.0396729,30.6382141-4.5969849,60.0990906-13.5463257,89.4666443c1.8056641,0.2344055,2.7625122,0.4145813,3.7269897,0.4757385   c37.1696167,2.3575745,74.126709,6.9183655,111.1722412,10.5744629   c18.1212158,1.7883606,35.7181396-2.4890747,53.2919922-5.8796692c0.8905029-7.4410706-3.6495972-11.6418457-7.4580078-15.9445801   c-15.885376-17.9478149-33.2972412-34.3360901-51.5917358-49.8055115   c-8.0957642-6.8457031-16.269165-13.4115295-26.4764404-17.0974731   c-18.9946899-6.8591614-38.4293213-11.9847107-58.3200073-15.3092651   c-3.8478394-0.6430664-7.8778687-2.5649414-11.9529419-0.3419189c12.307312,2.2373047,24.4835205,4.9150696,36.4835815,8.2073669   c18.6638794,5.1204529,37.1616211,10.4761658,52.5336304,23.4428711   c18.1760254,15.3321228,35.3473511,31.6630249,51.6099243,48.9598389c3.8746338,4.1210022,8.305481,8.008728,10.7023926,13.5925598   C835.0461426,425.4603882,833.869751,422.9284668,832.4115601,421.3364258z"/><path d="M285.0300598,429.2672729c-9.7507324,5.2250061-30.6708832,7.4196777-30.9154358,21.4497681   c1.8028717,1.2393494,3.4058228,1.4411316,5.6869507,0.1495667c1.1903992-10.8181152,18.9383545-14.3330078,27.5041504-17.0070801   c14.0842285-4.3967896,28.5530701-6.0080261,43.2593079-5.6635742c16.3146057,0.3821411,32.5949402,0.4679565,48.9145813,0.2948303   c6.8912048-0.0731506,33.9734497,1.5727234,29.4478149-8.2033081c-2.9759521-6.8139648-10.1234131-6.339325-16.3242493-6.4795227   c-7.5636902-0.1711121-15.1280212-0.3143311-22.6927795-0.4335327   c-16.2090454-0.2554016-32.4197998-0.3986816-48.6307068-0.4631653c-16.2112732-0.0644531-32.42276-0.0490112-48.6340332,0.013031   c-6.5006104,0.0248413-11.4367371-0.1127625-16.7628021,3.9611511c-3.8933258,2.9781189-10.8150787,7.4421082-6.6970215,12.3818359   C260.5380859,429.2672729,272.7840881,429.2672729,285.0300598,429.2672729z"/><path d="M557.0057983,628.6356201c6.7924805,17.1258545,23.9091797,37.5466919,44.2564697,27.177063   c21.6036377-11.0099487,27.7349243-40.6547852,27.9380493-62.5567627   c-0.4081421-21.9418335-8.9940796-62.2055664-36.9715576-63.9902344   c-21.1224976-1.3474121-34.2805786,23.447998-38.7927856,40.7764282   C548.47229,589.1046143,549.7407227,610.3181763,557.0057983,628.6356201z M559.359314,591.3832397   c0.418335-14.0620117,6.1713867-40.9760742,24.4232178-41.621521   c21.5117798-0.7608032,26.8601074,31.6604614,26.9083862,47.0648193   c0.2365112,15.0291138-9.0964355,48.2833862-30.2357788,41.5073242   C563.1687012,632.7928467,558.9029541,606.7208862,559.359314,591.3832397z"/><path d="M808.6519165,461.2277832c-3.296875-0.1759033-7.7529297-0.5727234-11.6248779-0.7197571   c-0.4891357-0.0185242-0.8881836,0.3707275-0.90271,0.8600464c-0.0464478,1.5643616,0.2130127,3.2497253,0.7017212,4.4839783   c0.1192627,0.301239,0.4067383,0.4935303,0.7299194,0.5169067c3.1717529,0.2294312,7.6724243,0.5758972,12.111084,0.8097229   c0.5371094,0.0283203,0.9713135-0.4395142,0.9169922-0.9746704c-0.1808472-1.7814331-0.5631104-2.9200134-1.1739502-4.4320068   C809.2830811,461.4577637,808.9904175,461.2458191,808.6519165,461.2277832z"/><path d="M895.8334961,521.741333c-22.9003296-3.6244507-30.1917725,33.9749756-30.8602295,49.8122559   c-0.739624,17.5200195,2.9324341,52.9040527,24.7149048,57.7625732   c24.6587524,5.500061,30.8840332-36.5932617,31.2503052-52.3149414   C920.5235596,560.7941895,916.8655396,525.0700073,895.8334961,521.741333z M898.8225098,605.9446411   c-5.7973022,10.6603394-14.2070312,10.3413696-20.727356,0.0973511c-5.6845093-8.9307861-7.0098877-18.949646-7.0200195-33.6144409   c0.0441895-5.7246704,1.1491089-15.5836182,6.3186646-24.5316772c5.9029541-10.2177124,15.1358643-10.8669434,20.9177246-0.6984253   C909.276062,566.4811401,909.401062,586.4923096,898.8225098,605.9446411z"/><path d="M981.4186401,501.5930786c-1.065918-8.254425-2.1676636-16.5040894-3.2275391-24.7592468   c-0.8043213-6.2648315-0.4515381-14.1468201-3.0600586-19.9385071c-2.5332031-5.6247864-8.1026611-6.6138916-13.5661011-8.278656   c-7.578064-2.3089905-15.164856-4.590332-22.7833862-6.7626343c-14.7440796-4.2041321-29.5911865-7.8450928-44.6251221-10.8493042   c-14.2572632-2.8489685-23.4909058-15.190033-33.8375854-24.7194824   c-19.6328735-18.0820618-39.6306763-36.0852661-60.7730103-52.402771   c-21.2384644-16.391571-45.4659424-26.8297119-71.4937744-33.0227051   c-53.3551025-12.695282-110.7460938-12.2249451-165.293335-12.3097534   c-28.7593384-0.0446777-57.5171814,0.4364319-86.2573547,1.4867554c-28.5272522,1.042572-58.1670837,0.5386658-86.457489,4.4385681   c-25.0570374,3.4542542-41.4411926,19.3674927-58.2939758,36.8773193   c-9.0674133,9.4208069-17.7693787,19.1903076-26.1162109,29.2546387   c-4.4998474,5.4257202-8.895874,10.936676-13.1919861,16.5249634c-2.2090454,2.8733826-5.9289246,9.2748413-10.1954956,10.6078796   c4.5308838-0.4939575,10.6906128-0.4780273,16.2298889-0.749939c-2.0645447-4.0021362,11.0945435-16.6292114,13.8937073-19.9871216   c6.0074463-7.2065125,12.1737671-14.2804871,18.5263672-21.1850281   c11.5741577-12.5799561,23.7635193-26.95047,38.7184448-35.6151733c14.2839966-8.2759705,30.8823853-7.410675,46.8557129-8.4829407   c19.0639648-1.2797852,38.1203308-2.4571533,57.2203064-3.0392456c37.1407776-1.131897,74.304657-1.5321045,111.4606018-1.1022339   c18.5838013,0.2150269,37.1651611,0.641449,55.7389526,1.285614c13.0135498,0.4513855,26.9090576,1.1482849,33.1853027,14.6331177   c5.8274536,12.5207214,1.0093384,30.3098755-0.9249878,43.3240051   c-2.4710083,16.6254578-6.3712769,33.1051331-12.8397827,48.6562195c2.6622314,0.6624146,5.0665283,1.6000061,8.0011597,0.7889709   c9.4345703-14.0849609,11.3129272-34.6461792,13.4543457-51.0169678   c2.2783203-17.4171753,5.5461426-35.3161926-1.7191772-52.0678101c19.1578979,0,38.0112305,4.6010437,56.4486694,9.4395142   c17.4264526,4.5731506,33.7420654,10.9237976,48.3049927,21.6977234   c16.0935059,11.9062195,31.3496094,24.927887,46.2084961,38.3295593   c7.2406616,6.5306091,14.3864746,13.1654968,21.4946899,19.8398743   c3.1218262,2.9312439,20.4425049,15.8053284,18.7755127,19.8922424   c-15.6880493,2.967041-31.2983398,6.3882446-46.9924927,9.2868042c-15.7059326,2.9007874-30.3981323,1.295166-46.1253662-0.4655151   c-32.9024048-3.6834412-66.0374146-4.9810486-99.0060425-8.0036316   c-33.5050659-3.0718689-66.3560181-7.9487305-100.1142578-6.1063232   c-15.7729492,0.8608398-31.4857178,2.7107849-47.0531006,5.3797913   c-15.4762573,2.6533813-31.7642822,5.2391052-45.9858398,12.2089233c4.0322266,0.6185303,7.0430298-1.1040955,10.5271912,0.4817505   c-6.1508789,3.4522705-11.6516113,7.067627-16.5260315,11.2229004   c-143.3527222-0.1470032-286.4104919-0.7319641-429.4991455-0.5176086   c63.2723656-12.3298035,127.4726257-15.9320068,192.6688843-20.6185608   c-3.0006714-3.2254639-4.1185608-5.8717651-4.3764648-8.9073486c-27.3470764,3.2201843-55.3924255,2.6178589-82.8859406,5.0608521   c-26.8244934,2.3835144-53.5718002,5.601593-80.1441269,9.9935608c-13.1569862,2.1746826-27.346489,3.6340027-40.0970306,7.6162109   c-9.6540051,3.0151367-12.2980232,10.3881531-13.8580742,19.6678467   c-2.1800041,12.967926-2.9666767,26.1121826-3.2686405,39.2445374c-0.2816277,12.247345,2.0745831,26.5831604-0.6144199,38.5271912   c-10.1975708,8.0479736-8.7690277,13.2754517-3.4099216,24.4077148   c5.2651806,10.9373169,8.2996254,21.4216309,21.9482212,22.0390015   c13.0014114,0.5880127,24.481144,11.2194824,35.2600021,18.0140381   c9.1484604,5.7667847,21.9446335,10.3738403,25.8459473,21.043396   c7.3468781,20.0928345,20.1347122,43.5174561,41.6005249,51.2764893   c12.1627808,4.3963623,27.1797791,2.8254395,39.9219818,2.8374634c12.0972443,0.0114136,25.6338806,1.164856,37.2048798-2.9346313   c21.7719421-7.7137451,31.9002991-31.0336914,40.2319794-50.6883545   c61.7157593-0.2253418,123.2488708-0.5464478,184.664978,0.3743286   c1.2615356,6.5567627,3.4972229,12.8708496,10.3301392,15.1412964c8.7328186,2.9017944,20.2695312,0.9553833,29.3468628,0.9553833   c6.7864075,15.5047607,17.337677,30.9022827,33.2706604,38.0388184c15.795105,7.0748901,35.3530273,3.642334,52.1737061,3.8012085   c17.4367065,0.1646118,33.5183716,1.0012207,47.8933716-10.5212402   c13.8545532-11.1052856,20.7262573-27.1332397,27.2175293-43.1270752   c53.6398926-6.4859009,106.8928223-12.9251099,160.4175415-19.3970947   c4.9395752,14.9890137,13.0133057,31.3492432,28.0255737,38.385376c15.8696899,7.4379272,37.565918,3.6141968,54.5421143,3.2008667   c40.2958984-0.9812622,48.2783203-49.7008057,51.201355-81.3986206c8.6981201-0.6747437,18.2058105-0.3828735,24.8348999-7.0169678   c3.2160034-3.2185059,4.6621704-7.1278687,6.0474243-11.3339844c2.1782227-6.6135254,5.0969238-12.7373657,7.7614746-19.164917   c2.65271-0.3431396,4.5776978-0.5922241,7.2160034-0.9335938   C984.6519165,530.5292358,998.1600952,504.5104675,981.4186401,501.5930786z M438.7666016,467.0111084   c17.1732788,0,31.1443787,15.0691528,31.1443787,33.591156s-13.9710999,33.591156-31.1443787,33.591156   c-17.1733093,0-31.144989-15.0691528-31.144989-33.591156S421.5932922,467.0111084,438.7666016,467.0111084z    M257.7252502,484.9609375h136.3682861v5.0352783H257.7252502V484.9609375z M257.7252502,515.1332397h136.3682861v5.5487061   H257.7252502V515.1332397z M129.041687,484.9609375h123.1323853v5.0341492c0,0-41.7633667,0.0482788-65.8574677,0.0446777   c-17.2380981-0.002594-57.2749176-0.0435486-57.2749176-0.0435486V484.9609375z M129.041687,515.0424805h123.1323853v5.6394653   H129.041687V515.0424805z M84.7117081,467.0111084c17.1732788,0,31.1443939,15.0691528,31.1443939,33.591156   s-13.9711151,33.591156-31.1443939,33.591156s-31.1449738-15.0691528-31.1449738-33.591156   S67.5384216,467.0111084,84.7117081,467.0111084z M34.7211494,469.2902832   c-2.1707344,23.8368835-2.6512032,47.7039185-2.0566177,72.6075439   c150.6561432-0.6732788,300.9570923-0.8677368,451.8504639,0.0602417   c0.7802734-24.4469604-0.787384-48.1175232-4.5569153-71.6735229c7.2284546,24.4790649,7.1812439,49.5362549,6.54599,75.1408081   c-152.2695923,0-303.9744263,0-456.555542,0C29.8598328,519.8005981,28.4192162,494.3469543,34.7211494,469.2902832z    M29.3391209,547.8925781c151.4404449,0,303.3988953,0,455.6332703,0c1.178772,1.9175415-0.8360291,3.7221069-0.9151611,6.5078125   c-152.9469604,0.7136841-305.8388672,0.7230225-458.8491516,0.0939331   C25.4282494,551.3283691,27.4752369,550.2130127,29.3391209,547.8925781z M112.3830872,617.7153931   c-4.4108124-5.4810181-9.3317108-10.8721313-12.8663101-17.1707764c2.4096069-2.3282471,4.6842499-1.6494751,6.7408676-1.6583252   c14.6700439-0.0626221,29.3419495,0.0894775,44.0097046-0.1012573c3.911377-0.0509033,6.7714691,1.0375977,8.9529877,4.2711792   c3.1164398,4.6193237,7.2866669,8.5181274,10.2657013,14.6591797   C149.873764,617.7153931,131.3473816,617.7153931,112.3830872,617.7153931z M439.9198914,618.590271   c-14.7166748-0.0031128-29.4345093-0.1912231-44.1493225-0.0499878c-4.5621643,0.0437622-7.9175415-1.3439941-10.3483276-5.2355957   c-2.6613464-4.2608032-6.7059631-7.6104126-8.6112366-12.2385254c1.640686-2.7012329,4.0211182-2.1269531,6.0229187-2.1384277   c15.1088867-0.086731,30.2185059-0.0453491,45.3278503-0.0752563c1.807251-0.0036011,3.6753845-0.0430298,4.8911438,1.4612427   c4.3843689,5.4251709,8.6676941,10.9319458,12.9005127,16.2955933   C443.8786926,618.9847412,441.8053284,618.5906982,439.9198914,618.590271z M481.9298401,581.5679321   c-144.6000061-0.0029297-289.1999817,0.0101318-433.7999573,0.0189209c-5.4828491,0.0003662-10.9657021,0-16.377697,0   c-3.97756-5.5516968-5.965477-11.2854004-6.8898373-17.5444336c159.3205414,0,318.1131287,0,477.4750671,0   C500.2628784,576.0027466,493.3218994,581.5681763,481.9298401,581.5679321z M496.1973572,553.050293   c0-4.0726929,0-7.909668,0-11.7466431c0.1887817-0.0108643,0.3775635-0.0217285,0.5664368-0.0325317   c0.2171021,2.7095947,0.4342651,5.4192505,0.6471863,8.0765991c4.2071533,1.8769531,8.9121704,0.8657837,13.8005676,4.8895264   C505.3440247,553.7733765,500.9046021,553.4223633,496.1973572,553.050293z M618.1987305,500.4928894   c-18.7174683-6.9750671-41.8983154,8.3491211-47.9348755,26.4253845   c18.8388062-13.6606445,37.6658325-6.729187,49.9209595,11.3238525   c12.9396362,19.0613403,16.574707,43.5539551,14.7875977,66.1763916   c-1.6207886,20.5179443-9.8477173,46.0932617-27.9251709,58.026001   c-18.7702026,12.3900146-37.8272095,1.2095947-48.4708252-15.506897   c-14.6473999-23.0045776-15.4573364-48.9932251-12.6223145-75.2756958   c-5.7337646,2.765686-8.9586792,8.0238647-14.6890869,11.2248535c0.6635742-5.0283813,7.6264648-9.4458618,10.5953369-13.2267456   c4.2203979-5.375,7.6413574-11.3337402,10.3240967-17.6129761c5.2506714-12.2896729,8.4744873-25.078064,15.4680786-36.6432495   c6.2487183-10.3335266,15.1182861-20.7963562,26.4641113-25.6991882c5.1934204-2.2443237,10.7866821-3.0707397,16.4173584-2.683136   c4.9769287,0.3426514,11.329895,3.8047485,15.9819336,2.7761841c-21.1830444-12.765625-39.572876-1.9641418-54.635437,14.0497437   c-25.0199585,0-50.2685547,0-75.801178,0c-2.2096863-14.5921631-2.830658-29.558136-8.176178-43.9457703   c16.0569763-16.0079651,41.9594727-20.0173645,63.4502563-23.0046387   c24.7600098-3.4417725,49.8909302-4.1617432,74.8546143-3.4593811c12.3203735,0.3466797,24.6282959,1.0631409,36.9185181,1.9801636   c6.4505615,0.4813232,19.0855713-0.8072205,24.4285889,4.0882263c6.1883545,5.6699829,2.2417603,19.8890991,1.8283691,27.0226746   c-0.7161255,12.3575439-1.2492676,24.7249756-1.9138794,37.0852356c-15.355957,0.0184021-30.6942749,0.0184021-46.949707,0.0184021   c10.3498535,16.4005737,14.5792236,33.8218384,14.9926758,52.3660278   C648.5439453,535.8215942,640.4689941,508.7919312,618.1987305,500.4928894z M830.2993774,561.7169189   c-0.7382812,7.4100952-4.7198486,14.0437012-9.4292603,19.9547729   c-5.397644,6.7748413-12.3029175,10.5388794-21.0733643,11.2919922   c-27.7108154,2.3794556-55.2116699,6.5387573-82.7902832,10.0431519   c-6.5898438,0.8373413-13.1847534,2.2062988-19.8817139,1.5792847c-9.8770752-0.9248047-12.2175903-4.2860107-10.227356-13.9935303   c1.2162476-5.9325562,2.3421021-11.8884888,3.315918-17.8652344c2.9117432-17.8709106-0.593689-35.5585938-1.6504517-53.3162842   c-0.3110962-5.2285767-0.5893555-10.4590454-0.8825073-15.6885681c2.4839478-0.7493896,3.2305908,0.5464478,3.3182983,2.9041443   c1.0378418,27.8859863,6.7420654,55.7556152-0.4545898,83.6590576c-2.2218628,8.6149902,0.0866699,10.8847656,9.2706909,10.7053833   c15.1332397-0.2955322,29.9456177-3.5039673,44.9223633-5.2357788c18.0977783-2.0926514,36.1531982-4.6300049,54.2906494-6.2706909   c9.6746216-0.8751221,16.581543-5.2702026,21.8532104-12.9396973c4.5281372-6.5881348,7.5671997-14.0686035,7.8607788-21.8560791   c0.6333008-16.7991943,0.1946411-33.638916,0.1946411-51.1054688c-45.7015381,0-91.2965088,0-136.4793091,0   c-2.3944702-3.2218628-1.84375-6.1405334-1.663147-9.0691833c0.9771729-15.8482361,1.8343506-31.7038574,2.8378906-47.550354   c0.2335205-3.6872253-0.2457275-7.0102844-3.9159546-10.1492004c42.2237549,2.4502869,83.2250366,8.144104,125.2756348,10.092926   c3.2889404,8.2581787,4.8433228,17.7006226,7.2866821,26.8766785c2.2136841,8.3134155,3.7922974,16.8224487,6.4451904,24.9871826   C835.5064087,519.647644,832.3908081,540.7247314,830.2993774,561.7169189z M919.9860229,611.324646   c-4.1305542,10.9034424-12.1696777,25.1883545-25.1687012,26.5714722   c-13.2871704,1.4137573-22.2095947-11.6185913-27.0383911-22.1851807   c-5.4247437-11.8709106-6.727417-24.6398926-7.6445923-37.4899902   c-0.0907593-13.9852295,1.8278809-28.1407471,7.4215088-41.0501099   c4.3048706-9.9350586,11.7867432-22.717041,23.8570557-24.0049438   c25.7270508-2.7449951,33.6203613,40.4487915,34.1623535,58.2634888   C925.9816895,584.7871094,924.7529907,598.7412109,919.9860229,611.324646z M930.9367065,502.8687134   c-0.6630249,4.5837708,2.8948975,7.6586914,1.592041,12.003479   c-10.1682129-12.1477051-21.6498413-24.8589478-39.1313477-18.3877563   c-14.6496582,5.422821-23.4439697,20.1491699-30.8300781,32.9425659   c1.756958-13.821106,8.3446655-27.9247437,18.5743408-37.5150757c10.5767822-9.915741,22.7267456-10.8993835,35.9327393-5.642334   c-15.0822144-13.0148315-33.7530518-6.1916199-48.8876953,16.5820007c-11.6400757,0-23.5391846,0-36.2202148,0   c-4.2442017-18.4115906-8.5266724-36.989563-12.9711304-56.2701111c23.9592285-3.64328,49.2373047-11.3079224,73.4101562-7.027832   c25.1486206,4.4529419,50.3448486,11.7328491,74.4135132,20.2011108   c3.0265503,13.9969177,4.9504395,28.0744019,6.5681763,43.1139526   C958.9212646,502.8687134,944.9135742,502.8687134,930.9367065,502.8687134z M973.1916504,529.6983643   c1.3499756-6.2328491,2.4827881-11.4631348,3.6245117-16.7349243   C980.8806152,515.2051392,978.9769287,525.9529419,973.1916504,529.6983643z"/><path d="M438.7666016,531.838623c15.8745728,0,28.7896118-14.0125122,28.7896118-31.2363586   c0-17.223877-12.9150391-31.2363892-28.7896118-31.2363892c-15.8751831,0-28.7902222,14.0125122-28.7902222,31.2363892   C409.9763794,517.8261108,422.8914185,531.838623,438.7666016,531.838623z M438.76651,471.4205627   c14.8999939,0,26.9787903,13.0650024,26.9787903,29.181488c0,16.1164551-12.0787964,29.1813965-26.9787903,29.1813965   s-26.9787598-13.0649414-26.9787598-29.1813965C411.7877502,484.4855652,423.8665161,471.4205627,438.76651,471.4205627z"/><path d="M84.7117081,531.838623c15.874588,0,28.7896194-14.0125122,28.7896194-31.2363586   c0-17.223877-12.9150314-31.2363892-28.7896194-31.2363892c-15.8751678,0-28.7902031,14.0125122-28.7902031,31.2363892   C55.921505,517.8261108,68.8365402,531.838623,84.7117081,531.838623z M84.7116318,471.4205627   c14.9000015,0,26.978775,13.0650024,26.978775,29.181488c0,16.1164551-12.0787735,29.1813965-26.978775,29.1813965   s-26.978775-13.0649414-26.978775-29.1813965C57.7328568,484.4855652,69.8116302,471.4205627,84.7116318,471.4205627z"/></g></svg>