<svg xmlns="http://www.w3.org/2000/svg" xmlns:xlink="http://www.w3.org/1999/xlink" xml:space="preserve" version="1.1" style="shape-rendering:geometricPrecision;text-rendering:geometricPrecision;image-rendering:optimizeQuality;" viewBox="0 0 277 197.5" x="0px" y="0px" fill-rule="evenodd" clip-rule="evenodd"><defs><style type="text/css">
   
    .fil0 {fill:black;fill-rule:nonzero}
   
  </style></defs><g><path class="fil0" d="M73 76c0,0 -6,-1 -13,-2 2,8 -6,14 -13,14 -10,0 -18,-10 -10,-18 -3,-1 -6,-1 -7,-2 0,0 -10,10 -4,23l57 3c0,0 -6,-10 -10,-18z"/><path class="fil0" d="M52 77c0,2 -2,4 -5,4 -3,0 -5,-2 -5,-4 0,-3 2,-5 5,-5 3,0 5,2 5,5z"/><path class="fil0" d="M37 45l-24 33 -4 30 -1 -35 17 -26 -22 0c0,0 -10,-9 6,-15 16,-6 27,6 28,13z"/><polygon class="fil0" points="9,120 15,143 49,146 49,158 9,158 "/><path class="fil0" d="M86 76c0,0 3,13 12,21 27,0 54,0 81,0 9,-8 12,-21 12,-21 -34,3 -69,4 -105,0z"/><path class="fil0" d="M204 76c0,0 6,-1 14,-2 -3,8 5,14 12,14 11,0 18,-10 11,-18 3,-1 5,-1 7,-2 0,0 9,10 3,23l-57 3c0,0 7,-10 10,-18z"/><path class="fil0" d="M225 77c0,2 3,4 5,4 3,0 6,-2 6,-4 0,-3 -3,-5 -6,-5 -2,0 -5,2 -5,5z"/><path class="fil0" d="M237 43c0,0 -7,-27 -36,-43 -37,0 -78,0 -124,0 -30,16 -37,43 -37,43 66,4 132,4 197,0z"/><path class="fil0" d="M241 45l23 33 4 30 2 -35 -17 -26 22 0c0,0 9,-9 -7,-15 -16,-6 -27,6 -27,13z"/><polygon class="fil0" points="268,120 262,143 228,146 228,158 268,158 "/><path class="fil0" d="M66 141l0 6c49,0 98,0 147,0l0 -6c-49,0 -98,0 -147,0z"/><path class="fil0" d="M29 117c-14,4 -10,18 -10,18l113 0 -23 -18 -80 0zm4 15c-5,0 -8,-3 -8,-6 0,-4 3,-7 8,-7 4,0 7,3 7,7 0,3 -3,6 -7,6z"/><path class="fil0" d="M249 117c13,4 10,18 10,18l-113 0 22 -18 81 0zm-4 15c4,0 7,-3 7,-6 0,-4 -3,-7 -7,-7 -4,0 -8,3 -8,7 0,3 4,6 8,6z"/></g></svg>