<?xml version="1.0" encoding="UTF-8"?>
<svg width="1200pt" height="1200pt" version="1.1" viewBox="0 0 1200 1200" xmlns="http://www.w3.org/2000/svg">
 <g>
  <path d="m45.473 439.58h-1.2617c5.0508 0 8.8398-2.5273 1.2617 0z"/>
  <path d="m1189.9 798.32c-1.2617-72-3.7891-144-5.0508-216 0-2.5273-2.5273-3.7891-5.0508-2.5273 3.7891-27.789 8.8438-65.684-2.5273-90.949-3.7891-8.8438-11.367-20.211-21.473-30.316 8.8438 0 16.422-1.2617 22.738-5.0508 2.5273-1.2617 5.0508-3.7891 6.3164-6.3164 5.0508-13.895-7.5781-35.367-15.156-44.211-8.8438-10.105-22.738-13.895-35.367-17.684-10.105-2.5273-29.051-8.8438-39.156-2.5273-2.5273 1.2617-3.7891 3.7891-5.0508 6.3164 0 1.2617-1.2617 3.7891-1.2617 6.3164v1.2617c-1.2617 10.105 3.7891 22.738 1.2617 31.578-10.105 1.2617-20.211 5.0508-30.316 7.5781-20.211 5.0508-11.367 1.2617-27.789-8.8438-10.105-5.0508-20.211-1.2617-29.051-10.105-7.5781-8.8438-12.633-21.473-18.949-30.316-20.211-31.578-41.684-63.156-68.211-89.684-20.211-21.473-37.895-34.105-65.684-40.422-11.367-2.5273-21.473-10.105-34.105-12.633-20.211-3.7891-40.422-2.5273-60.633-3.7891-24 0-46.738-1.2617-70.738-1.2617h-18.949-1.2617c-3.7891 0-3.7891 0-2.5273 1.2617-1.2617 0-2.5273-1.2617-3.7891-2.5273-3.7891-2.5273-6.3164-6.3164-11.367-7.5781-13.895-3.7891-29.051-3.7891-44.211-3.7891-15.156-1.2617-30.316-1.2617-44.211 3.7891-5.0508 1.2617-8.8438 5.0508-11.367 7.5781-1.2617 1.2617-2.5273 1.2617-3.7891 2.5273 1.2617 0 1.2617-1.2617-2.5273-1.2617h-1.2617c-6.3164 1.2617-12.633 0-18.949 0-24 0-46.738 1.2617-70.738 1.2617-20.211 0-40.422-1.2617-60.633 3.7891-12.633 2.5273-22.738 8.8438-34.105 12.633-27.789 7.5781-45.473 18.949-65.684 40.422-25.262 27.789-48 58.105-68.211 89.684-6.3164 10.105-11.367 22.738-18.949 30.316-8.8438 10.105-18.949 5.0508-29.051 10.105-16.422 10.105-7.5781 13.895-27.789 8.8438-8.8438-2.5273-20.211-5.0508-30.316-7.5781-2.5273-10.105 1.2617-21.473 1.2617-31.578v-1.2617c0-2.5273 0-3.7891-1.2617-6.3164-1.2617-2.5273-1.2617-3.7891-5.0508-6.3164-10.105-6.3164-29.051 0-39.156 2.5273-12.633 2.5273-26.527 7.5781-35.367 17.684-10.117 7.582-22.746 29.055-17.695 42.949 1.2617 2.5273 2.5273 5.0508 6.3164 6.3164 6.3164 3.7891 13.895 5.0508 22.738 5.0508-8.8438 11.371-16.422 22.738-20.211 30.316-11.367 26.527-6.3164 63.156-2.5273 90.949-2.5273 0-5.0508 0-5.0508 2.5273-1.2617 72-3.7891 144-5.0508 216 0 25.262-3.7891 59.367 11.367 79.578 10.105 13.895 25.262 10.105 40.422 10.105 155.37 2.5273 310.74 0 467.37-1.2617h69.473 69.473c155.37 1.2617 310.74 3.7891 467.37 1.2617 15.156 0 30.316 2.5273 40.422-10.105 12.633-18.949 10.105-53.055 10.105-78.316zm-79.578-410.53c7.5781 0 16.422 2.5273 25.262 3.7891 10.105 3.7891 20.211 8.8438 29.051 18.949 6.3164 6.3164 17.684 21.473 7.5781 29.051-2.5273 1.2617-7.5781 1.2617-12.633 1.2617 6.3164 1.2617 11.367 2.5273 17.684 3.7891-2.5273 3.7891-7.5781 5.0508-13.895 6.3164-10.105-2.5273-18.949-5.0508-20.211-11.367 0-1.2617 0-3.7891 1.2617-3.7891 8.8438-6.3164 22.738 5.0508 22.738-8.8438-1.2617-20.211-41.684-30.316-55.578-31.578h-15.156c0.003906-7.5781 3.793-8.8398 13.898-7.5781zm-516.63-157.89c2.5273 1.2617 5.0508 0 8.8438 0h8.8438v-1.2617c18.949 0 39.156 0 44.211 7.5781-8.8438 6.3164-26.527 6.3164-44.211 6.3164v-1.2617h-8.8438-8.8438v1.2617c-17.684 0-35.367 0-44.211-6.3164 5.0547-6.3164 25.266-7.5781 44.211-6.3164zm-567.16 214.74c5.0508-1.2656 11.367-2.5273 17.684-5.0547-3.7891 1.2617-10.105 1.2617-12.633-1.2617-10.105-7.5781 1.2617-22.738 7.5781-29.051 7.5781-8.8438 17.684-15.156 29.051-18.949 8.8438-2.5273 17.684-3.7891 25.262-3.7891 10.105-1.2617 13.895 1.2617 13.895 7.5781h-15.156c-12.633 1.2617-54.316 10.105-55.578 31.578-1.2617 13.895 13.895 2.5273 22.738 8.8438 1.2617 1.2617 2.5273 2.5273 1.2617 3.7891-2.5273 6.3164-11.367 10.105-20.211 11.367-6.3125 0-11.367-1.2617-13.891-5.0508zm22.734 25.262c3.7891-3.7891 7.5781-8.8438 11.367-12.633 2.5273-2.5234 6.3203-5.0508 8.8438-7.5781 11.367-10.105 24-16.422 39.156-15.156h1.2617c2.5273 0 5.0508 1.2617 8.8438 1.2617 13.895 2.5273 27.789 6.3164 40.422 10.105 1.2617 0 2.5273 0 3.7891-1.2617 6.3164-8.8438 11.367-11.367 20.211-12.633 5.0508-1.2617 10.105 1.2617 15.156-2.5273 7.5781-5.0508 12.633-17.684 17.684-25.262 25.262-40.422 51.789-80.844 85.895-113.68 17.684-17.684 31.578-22.738 54.316-29.051 17.684-5.0508 31.578-13.895 51.789-15.156 45.473-3.7891 90.949-1.2617 135.16-2.5273 2.5273 2.5273 6.3164 5.0508 10.105 5.0508-50.527-1.2617-102.32 0-151.58 8.8438-24 3.7891-48 8.8438-72 15.156-5.0508 1.2617-8.8438 1.2617-12.633 5.0508-7.5781 6.3164-15.156 20.211-20.211 27.789-13.895 17.684-26.527 36.633-40.422 54.316-15.156 21.473-34.105 42.949-48 65.684-12.633 21.473 5.0508 24 22.738 24 77.051 1.2617 154.11 0 231.16 0h130.11 16.422 130.11c77.051 0 154.11 1.2617 231.16 0 18.949 0 36.633-2.5273 22.738-24-13.895-22.738-32.844-44.211-48-65.684-13.895-17.684-26.527-36.633-40.422-54.316-6.3164-7.5781-12.633-21.473-20.211-27.789-3.7891-2.5273-7.5781-3.7891-12.633-5.0508-22.738-6.3164-48-11.367-72-15.156-49.262-8.8438-101.05-10.105-151.58-8.8438 3.7891-1.2617 7.5781-2.5273 10.105-5.0508 45.473 1.2617 90.949 0 135.16 2.5273 20.211 1.2617 34.105 10.105 51.789 15.156 22.738 6.3164 36.633 11.367 54.316 29.051 34.105 32.844 60.633 74.527 85.895 113.68 5.0508 7.5781 8.8438 20.211 17.684 25.262 5.0508 3.7891 10.105 1.2617 15.156 2.5273 8.8438 2.5273 13.895 5.0508 20.211 12.633 1.2617 1.2617 2.5273 1.2617 3.7891 1.2617 13.895-3.7891 26.527-7.5781 40.422-10.105 2.5273 0 5.0508-1.2617 8.8438-1.2617h1.2617c15.156-1.2617 27.789 5.0508 39.156 15.156 3.7891 2.5273 6.3164 6.3164 8.8438 8.8438 3.7891 3.7891 7.5781 8.8438 11.367 12.633 27.789 31.578 21.473 73.262 17.684 112.42 0 2.5273 1.2617 3.7891 2.5273 3.7891-5.0508 25.262-32.844 186.95-32.844 202.11 0 17.684-1.2617 15.156-12.633 16.422-10.105 1.2617-96 5.0508-111.16 6.3164-1.2617 0-11.367-7.5781-11.367-40.422v-6.3164c1.2617 0 2.5273 0 3.7891-1.2617 25.262-32.844 51.789-65.684 77.051-98.527 18.949-24 39.156-45.473 45.473-77.051 7.5781-41.684-2.5273-83.367-51.789-73.262-39.156 7.5781-75.789 31.578-107.37 55.578-3.7891 3.7891-32.844 21.473-29.051 30.316 6.3164 15.156 88.422-8.8438 103.58-12.633h1.2617c5.0508-1.2617 10.105-2.5273 15.156-2.5273 3.7891 1.2617 7.5781 2.5273 8.8438 5.0508 6.3164 8.8438 1.2617 17.684-37.895 32.844-39.156 15.156-85.895 29.051-128.84 36.633-42.949 7.5781-128.84 16.422-128.84 16.422h-17.684l-5.0508-2.5273s-29.051 5.0508-66.949 5.0508h-78.316-16.422-78.316c-37.895 0-66.949-5.0508-66.949-5.0508l-5.0508 2.5273h-17.684s-85.895-8.8438-128.84-16.422-89.684-21.473-128.84-36.633c-39.156-15.156-42.949-22.738-37.895-32.844 1.2617-2.5273 5.0508-3.7891 8.8438-5.0508 5.0508 0 10.105 1.2617 15.156 2.5273h1.2617c16.422 2.5273 98.527 27.789 103.58 12.633 3.7891-8.8438-25.262-26.527-29.051-30.316-31.578-24-68.211-48-107.37-55.578-49.262-10.105-60.633 32.844-51.789 73.262 6.3164 31.578 26.527 53.051 45.473 77.051 26.527 32.844 51.789 65.684 77.051 98.527 1.2617 1.2617 2.5273 1.2617 3.7891 1.2617 1.2617 3.7891 0 6.3164 0 6.3164 0 32.844-10.105 40.422-11.367 40.422-15.156-1.2617-101.05-3.7891-111.16-6.3164-11.367-1.2617-12.633 0-12.633-16.422 0-16.422-29.051-176.84-32.844-202.11 1.2617 0 3.7891-1.2617 2.5273-3.7891-2.5039-40.426-7.5586-82.109 20.23-113.69zm769.27 217.26c-5.0508 1.2617-80.844 2.5273-98.527 2.5273s-21.473 5.0547-21.473 5.0547h72c6.3164 0-3.7891 3.7891-3.7891 3.7891h-329.69s-10.105-3.7891-3.7891-3.7891h72s-5.0508-5.0508-21.473-5.0508c-16.422 0-93.473-1.2617-98.527-2.5273-5.0508-1.2617-18.949-3.7891-15.156-7.5781 0 0 56.844 6.3164 104.84 6.3164s79.578 3.7891 93.473 3.7891h25.262 16.422 25.262c13.895 0 45.473-3.7891 93.473-3.7891s104.84-6.3164 104.84-6.3164c2.5273 3.7852-11.367 6.3125-15.156 7.5742zm3.7891 10.105v10.105h-22.738v-11.367h22.738zm-418.11 0v10.105h-22.738v-11.367h22.738zm-15.16 49.266h425.69l198.32-90.949s7.5781-3.7891 7.5781 3.7891c0 7.5781-111.16 96-125.05 109.89s12.633 2.5273 11.367 3.7891c-1.2617 1.2617 0 35.367 0 35.367s-1.2617 17.684-13.895 17.684h-42.949v-29.051l-40.422-39.156h-416.84l-39.16 39.156v29.051h-42.949c-12.633 0-13.895-17.684-13.895-17.684s1.2617-34.105 0-35.367c-1.2617-1.2617 25.262 10.105 11.367-3.7891s-125.05-103.58-125.05-109.89c0-6.3164 7.5781-3.7891 7.5781-3.7891zm707.37-106.11c7.5781-15.156 13.895-40.422 0-54.316-11.367-12.633-32.844-7.5781-49.262-3.7891-2.5273 0-5.0508 1.2617-8.8438 2.5273-25.262 6.3164-82.105 18.949-84.633 13.895-2.5273-5.0508 42.949-35.367 48-39.156 24-16.422 51.789-31.578 80.844-37.895 32.844-6.3164 45.473 11.367 45.473 41.684 0 30.312-11.367 54.312-31.578 77.051 0 0-1.2617 1.2617-1.2617 2.5273-0.003906 0 1.2617-1.2656 1.2617-2.5273zm-653.05 142.73v-12.633l150.32 0.003906h165.47v12.633h-25.262v6.3164h25.262v5.0508h-25.262v-5.0508h-123.79l-16.422-0.003906h-123.79v5.0508h-25.262v-5.0508h25.262v-6.3164zm26.527 20.211v7.5781l123.79 0.003907h140.21v-7.5781h25.262v13.895h-18.949v-7.5781h-7.5781v7.5781h-123.79l-15.156-0.003906h-123.79v-7.5781h-7.5781v7.5781h-18.949v-13.895zm-304.42-218.52c-5.0508-1.2617-7.5781-1.2617-10.105-2.5273-16.422-3.7891-39.156-8.8438-49.262 3.7891-12.633 15.156-6.3164 39.156 0 54.316 0 1.2617 1.2617 1.2617 1.2617 2.5273-1.2617-1.2617-2.5273-2.5273-2.5273-3.7891-17.684-21.477-29.051-45.477-29.051-75.793 0-30.316 13.895-49.262 45.473-41.684 29.051 6.3164 56.844 21.473 80.844 37.895 5.0508 3.7891 50.527 34.105 48 39.156-3.7891 5.0547-59.367-8.8398-84.633-13.891zm-121.26 296.84c-25.262-6.3164-22.738-48-22.738-70.738 0-15.156 1.2617-29.051 1.2617-44.211v49.262s3.7891 5.0508 15.156 6.3164c11.367 1.2617 42.949 5.0508 42.949 5.0508 0.003906 0.003907 166.74 6.3203 161.69 6.3203-5.0508 0-97.262 6.3164-106.11 6.3164s-74.527 1.2617-88.422-5.0508c-13.895-6.3164-13.895 1.2617-8.8438 11.367 5.0508 8.8438 29.051 30.316 54.316 35.367-16.422 2.5273-35.367 2.5273-49.262 0zm1115.4 0c-15.156 3.7891-32.844 2.5273-50.527 1.2617 25.262-5.0508 50.527-26.527 54.316-35.367 5.0508-10.105 5.0508-17.684-8.8438-11.367-13.895 6.3164-79.578 5.0508-88.422 5.0508s-101.05-6.3164-106.11-6.3164c-5.0508 0 161.68-6.3164 161.68-6.3164s32.844-3.7891 42.949-5.0508c11.367-1.2617 15.156-6.3164 15.156-6.3164v-49.262c0 15.156 1.2617 29.051 1.2617 44.211 1.2695 20.211 3.7969 61.895-21.469 69.473z"/>
  <path d="m1159.6 439.58h-1.2617c-8.8438-2.5273-5.0547 0 1.2617 0z"/>
 </g>
</svg>
