<svg xmlns="http://www.w3.org/2000/svg" xmlns:xlink="http://www.w3.org/1999/xlink" version="1.1" x="0px" y="0px" viewBox="0 0 73 91.25" style="enable-background:new 0 0 73 73;" xml:space="preserve"><g><path d="M57.5647583,4.6813173c-0.3867188-0.1435547-0.8198242,0.0493164-0.9667969,0.4365234l-2.1049805,5.5717773   c-0.1464844,0.3876953,0.0493164,0.8203125,0.4365234,0.9667969c0.3925705,0.1469393,0.8221512-0.0530844,0.9667969-0.4365234   l2.1049805-5.5717773C58.1477661,5.2604189,57.9519653,4.8278017,57.5647583,4.6813173z"/><path d="M59.2581177,14.1783876l5.1450195-4.625c0.3081055-0.2768555,0.3330078-0.7509766,0.0561523-1.059082   c-0.277832-0.3085938-0.7514648-0.3334961-1.059082-0.0561523l-5.1450195,4.625   c-0.3081055,0.2768555-0.3330078,0.7509766-0.0561523,1.059082C58.4745941,14.4287157,58.9481087,14.4567604,59.2581177,14.1783876   z"/><path d="M62.1643677,16.8155937c0.0488281,0.378418,0.371582,0.6547852,0.7431641,0.6547852   c0.0317383,0,0.0639648-0.0019531,0.0961914-0.0058594c1.9179688-0.2456055,3.8212891-0.878418,5.5039063-1.8295889   c0.3603516-0.2036133,0.487793-0.6611328,0.2836914-1.0219727c-0.2041016-0.3618164-0.6621094-0.4882813-1.0219727-0.2836914   c-1.5151367,0.8564453-3.2290039,1.4257813-4.9560547,1.6469727   C62.4021606,16.0289726,62.1121216,16.4049492,62.1643677,16.8155937z"/><ellipse transform="matrix(0.9732491 -0.2297522 0.2297522 0.9732491 -4.8594813 9.0091114)" cx="36.2580719" cy="25.3726158" rx="8.6265125" ry="8.6264782"/><path d="M26.0229492,66.1320648c1.9154663,0.7370605,4.1967773,1.0524292,6.1685181,1.3951416   c11.0527229,1.921196,21.9393845,0.1528931,25.1309204-1.4160156c1.1014404-0.5413818,0.7700806-2.2233315-0.4550171-2.2967567   c-2.4854736-0.1490479-4.9854126-0.017334-7.4448853,0.3706703c9.912365-4.8636971,16.5485916-15.1023865,17.1159058-25.4393349   v0.0004883C67.6658325,18.4034767,48.7316933,4.4322472,30.4900513,7.784894   C5.1535144,9.8932085-1.1151098,39.8326073,8.1965322,53.541729C11.9331989,59.0431137,18.839447,64.331398,26.0229492,66.1320648z    M53.8156738,59.6513481c-11.6036606,9.1328392-26.8321133,6.8209496-36.223938-1.2682495   c-0.9395142-10.6257515,7.4885998-19.838501,18.1883545-19.838501   C47.1109581,38.5445976,55.5931511,48.7827072,53.8156738,59.6513481z M13.7185659,19.875164   C30.3549461-2.1591711,66.5702591,11.067977,65.0403442,38.66325c-0.0314255,0.1150551-0.1270981,10.9287376-9.5627441,19.5723877   c0.8273811-11.6013641-8.3789177-21.19104-19.6975098-21.19104c-10.8801346,0-19.8196411,8.8668022-19.755127,19.8825073   C6.114017,47.0260582,5.7102299,30.48312,13.7185659,19.875164z"/></g></svg>