<svg xmlns="http://www.w3.org/2000/svg" xmlns:xlink="http://www.w3.org/1999/xlink" version="1.1" x="0px" y="0px" viewBox="0 0 64 80" enable-background="new 0 0 64 64" xml:space="preserve"><g><path d="M32,1.25C15.044,1.25,1.25,15.044,1.25,32S15.044,62.75,32,62.75c16.955,0,30.75-13.794,30.75-30.75S48.956,1.25,32,1.25z    M32,58.509C17.383,58.509,5.491,46.617,5.491,32S17.383,5.491,32,5.491S58.509,17.383,58.509,32S46.617,58.509,32,58.509z"/><g><path d="M23.511,15.804c-0.162,0.253-0.287,0.521-0.384,0.84c0.136-0.231,0.253-0.432,0.371-0.633    c0.01,0.005,0.02,0.01,0.029,0.015c-0.012,0.054-0.023,0.109-0.036,0.163c-0.002,0.01-0.005,0.021-0.007,0.031    c-0.333,1.467-0.418,2.979-0.272,4.476l0.307,3.158c0.03,0.31,0.049,0.621,0.07,0.932c0.103,1.537,0.753,2.988,1.972,4.41    c0.035,0.04,0.067,0.098,0.082,0.146c0.428,1.348,1.056,2.436,1.923,3.327c1.302,1.338,2.848,2.046,4.473,2.046h0.003    c1.618,0,3.157-0.702,4.453-2.031c0.83-0.851,1.445-1.891,1.881-3.179c0.048-0.143,0.139-0.301,0.249-0.435    c1.262-1.531,1.879-3.091,1.877-4.747c0-0.115,0-0.23,0.001-0.345l0.024-5.734c-0.028-0.19-0.057-0.383-0.084-0.579    c0.03,0.078,0.059,0.153,0.088,0.226c0.052,0.132,0.102,0.259,0.147,0.386c0.07,0.195,0.13,0.393,0.195,0.591    c0.005-0.038-0.001-0.071-0.008-0.105c-0.129-0.621-0.281-1.233-0.554-1.809c-0.021-0.045-0.042-0.091-0.062-0.136    c-0.001-0.001-0.001-0.001-0.001-0.001c-0.038-0.084-0.072-0.169-0.103-0.255c-0.091-0.246-0.18-0.492-0.27-0.738    c-0.068-0.187-0.136-0.374-0.204-0.561c-0.013-0.034-0.025-0.067-0.038-0.101c0.013-0.008,0.028-0.015,0.041-0.023    c0.231,0.364,0.462,0.729,0.693,1.093c-0.035-0.122-0.079-0.244-0.128-0.363c-0.209-0.508-0.48-0.976-0.887-1.355    c-0.086-0.079-0.163-0.167-0.227-0.263c-0.411-0.612-0.905-1.131-1.581-1.447c-0.02-0.01-0.04-0.019-0.059-0.028    c-0.311-0.138-0.624-0.268-0.936-0.402c-0.079-0.033-0.156-0.067-0.234-0.101c0.159,0.013,0.315,0.03,0.47,0.054    c0.884,0.132,1.718,0.428,2.528,0.811c-0.032-0.033-0.067-0.057-0.102-0.081c-0.972-0.657-2.058-0.986-3.212-1.122    c-0.045-0.005-0.089-0.01-0.134-0.014c-0.387-0.038-0.778-0.05-1.148-0.199c-0.144-0.058-0.3-0.089-0.452-0.129    c-0.175-0.045-0.351-0.088-0.526-0.132c-0.042-0.011-0.084-0.021-0.127-0.031c0.002-0.022,0.001-0.015,0.004-0.037h1.996    c-0.015-0.039-0.033-0.051-0.052-0.054c-0.868-0.125-1.739-0.219-2.617-0.139c-0.301,0.027-0.598,0.04-0.897-0.001    c-0.132-0.018-0.266-0.023-0.399-0.035c-0.001-0.022-0.001-0.016-0.002-0.038c0.652-0.122,1.303-0.243,1.992-0.372    c-0.691,0.017-1.343,0.062-1.987,0.177c-0.359,0.064-0.711,0.179-1.073,0.226c-0.516,0.067-1.038,0.094-1.561,0.138    c1.032-0.492,2.137-0.705,3.263-0.83c-0.212,0.006-0.423-0.004-0.634,0.008c-0.78,0.04-1.553,0.132-2.309,0.339    c-0.626,0.171-1.221,0.41-1.732,0.826c-0.097,0.079-0.214,0.133-0.322,0.198c-0.011-0.016-0.022-0.033-0.033-0.05    c0.235-0.17,0.461-0.354,0.707-0.507c0.25-0.156,0.514-0.294,0.781-0.42c0.258-0.122,0.528-0.219,0.793-0.326    c-0.524,0.133-1.03,0.318-1.516,0.556c-0.965,0.473-1.69,1.263-2.523,1.909c-0.002,0.002-0.003,0.004-0.005,0.005    c-0.054,0.087-0.113,0.172-0.161,0.263c-0.07,0.134-0.124,0.279-0.204,0.406c-0.036,0.058-0.115,0.098-0.182,0.127    c-0.137,0.056-0.283,0.088-0.417,0.149c-0.718,0.322-1.141,0.885-1.321,1.642c0.172-0.344,0.39-0.652,0.708-0.932    c-0.086,0.296-0.158,0.56-0.241,0.819C23.63,15.594,23.576,15.703,23.511,15.804z M25.252,23.916l0.008-0.094    c0.006-0.081,0.015-0.192,0.028-0.264c0.402-0.134,0.639-0.519,0.652-1.061c0.009-0.386,0.012-0.777,0.016-1.154    c0.004-0.421,0.008-0.851,0.02-1.279c0-0.718,0.582-1.295,1.295-1.295c0.013,0,0.025,0,0.038,0.001l0.65,0.019    c0.536-0.044,1.076-0.038,1.615-0.045c0.482-0.006,0.964-0.001,1.446-0.001h1.421c0.517,0,1.035,0.001,1.552-0.001    c0.382-0.001,0.764-0.008,1.146-0.009c0.33-0.002,0.661-0.001,0.991-0.001c0.321-0.001,0.639-0.006,0.955,0.09    c0.365,0.111,0.638,0.326,0.795,0.663c0.101,0.216,0.148,0.458,0.217,0.681c0.004-0.004,0.008-0.009,0.011-0.013    c0.01,0.367,0.01,0.742,0.009,1.127c-0.001,0.335-0.001,0.682,0.006,1.027c0.002,0.092,0.001,0.185,0.001,0.284v0.194    c0,0.386,0.277,0.718,0.657,0.787c0.015,0.071,0.025,0.171,0.03,0.212c0.157,1.48-0.31,2.825-1.47,4.233    c-0.239,0.291-0.426,0.622-0.54,0.958c-0.355,1.048-0.844,1.883-1.497,2.552c-0.976,1.001-2.104,1.53-3.264,1.53h-0.002    c-1.166-0.001-2.301-0.535-3.283-1.545c-0.681-0.701-1.182-1.574-1.53-2.67c-0.082-0.26-0.226-0.517-0.404-0.725    C25.627,26.722,25.128,25.388,25.252,23.916z"/><path d="M32,56.469c6.887,0,13.118-2.861,17.569-7.456l-0.227-2.202c-0.61-5.044-3.537-7.841-8.408-8.846    c-1.106-0.228-2.595-1.894-3.229-3.249l-0.338,0.252c-1.59,1.282-3.424,1.956-5.368,1.962c-1.945-0.006-3.778-0.68-5.368-1.962    l0.492,0.399c-0.284-0.199-0.561-0.416-0.83-0.651c-0.634,1.356-2.122,3.021-3.229,3.249c-4.871,1.005-7.798,3.802-8.408,8.846    l-0.225,2.204C18.883,53.609,25.113,56.469,32,56.469z"/></g></g></svg>